<?xml version="1.0" encoding="utf-8"?>
<!-- Generator: Adobe Illustrator 27.0.0, SVG Export Plug-In . SVG Version: 6.00 Build 0)  -->
<svg version="1.1" id="Layer_1" xmlns="http://www.w3.org/2000/svg" xmlns:xlink="http://www.w3.org/1999/xlink" x="0px" y="0px"
	 viewBox="0 0 1000 1030.69" style="enable-background:new 0 0 1000 1030.69;" xml:space="preserve">
<style type="text/css">
	.st0{fill:#06010A;}
</style>
<g>
	<g>
		<path class="st0" d="M715.02,229.33l-56.33,56.31c-92.72-66.18-222.37-57.72-305.59,25.51c-74.15,74.13-88.88,185.04-44.5,273.93
			l78.1-78.09l25.32,25.31L191.05,753.29l-25.32-25.31l84.96-84.96c-74-121.71-58.51-282.47,46.68-387.65
			C411.42,141.3,590.91,132.68,715.02,229.33z"/>
		<path class="st0" d="M327.52,728.2l55.72-55.7c92.76,66.2,222.4,57.67,305.63-25.57c83-82.99,91.7-212.1,26.18-304.8
			c-0.23-0.31-0.64-0.35-0.9-0.08l-83.68,83.66l-25.32-25.32l86.69-86.7c8.25,8.48,15.71,17.43,22.46,26.75
			c0.23,0.3,0.64,0.34,0.9,0.08L770.74,285c96.6,124.06,87.9,303.56-26.15,417.62c-113.9,113.88-293.01,122.75-417.04,26.6
			c-0.26-0.19-0.6-0.17-0.83,0.05L188.11,867.89l-25.32-25.32l137.48-137.48c8.44,8.24,17.37,16.04,26.45,23.16
			c0.23,0.19,0.57,0.17,0.79-0.05V728.2z"/>
	</g>
</g>
</svg>
